<svg width="210mm" height="297mm" version="1.1" viewBox="0 0 210 297" xmlns="http://www.w3.org/2000/svg">
 <g>
  <g stroke-width=".26458" aria-label="ass Traveler">
   <path d="m31.725 141.97q-0.24805-0.48369-0.35967-1.203-1.3022 1.4511-3.3858 1.4511-1.972 0-3.2742-1.141-1.2898-1.141-1.2898-2.8773 0-2.1332 1.5751-3.2742 1.5875-1.141 4.5765-1.1534h1.6495v-0.76895q0-0.93017-0.48369-1.4883-0.47129-0.5581-1.5007-0.5581-0.90537 0-1.4263 0.43408-0.5085 0.43408-0.5085 1.1906h-3.5843q0-1.1658 0.71934-2.158 0.71934-0.99219 2.034-1.5503 1.3146-0.5705 2.9518-0.5705 2.4805 0 3.9315 1.2526 1.4635 1.2402 1.4635 3.4975v5.8167q0.0124 1.91 0.5333 2.8898v0.21084zm-2.9642-2.4929q0.79375 0 1.4635-0.34727 0.66973-0.35967 0.99219-0.95498v-2.3068h-1.3395q-2.6913 0-2.8649 1.8604l-0.0124 0.21084q0 0.66972 0.47129 1.1038 0.47129 0.43408 1.2898 0.43408z"/>
   <path d="m45.256 138.26q0-0.65733-0.65732-1.0294-0.64492-0.38447-2.0836-0.68213-4.7873-1.0046-4.7873-4.068 0-1.7859 1.4759-2.9766 1.4883-1.203 3.8819-1.203 2.5549 0 4.0804 1.203 1.5379 1.203 1.5379 3.1254h-3.5843q0-0.76894-0.49609-1.265-0.49609-0.50849-1.5503-0.50849-0.90537 0-1.4015 0.40928-0.49609 0.40927-0.49609 1.0418 0 0.59532 0.5581 0.96739 0.57051 0.35966 1.91 0.63251 1.3395 0.26045 2.2572 0.59532 2.8401 1.0418 2.8401 3.6091 0 1.8356-1.5751 2.9766-1.5751 1.1286-4.068 1.1286-1.6867 0-3.0014-0.59532-1.3022-0.60771-2.0464-1.6495-0.74414-1.0542-0.74414-2.2696h3.3982q0.04961 0.95498 0.70693 1.4635 0.65732 0.50849 1.7611 0.50849 1.0294 0 1.5503-0.38447 0.5333-0.39687 0.5333-1.0294z"/>
   <path d="m58.7 138.26q0-0.65733-0.65732-1.0294-0.64492-0.38447-2.0836-0.68213-4.7873-1.0046-4.7873-4.068 0-1.7859 1.4759-2.9766 1.4883-1.203 3.8819-1.203 2.5549 0 4.0804 1.203 1.5379 1.203 1.5379 3.1254h-3.5843q0-0.76894-0.49609-1.265-0.49609-0.50849-1.5503-0.50849-0.90537 0-1.4015 0.40928-0.49609 0.40927-0.49609 1.0418 0 0.59532 0.5581 0.96739 0.57051 0.35966 1.91 0.63251 1.3395 0.26045 2.2572 0.59532 2.8401 1.0418 2.8401 3.6091 0 1.8356-1.5751 2.9766-1.5751 1.1286-4.068 1.1286-1.6867 0-3.0014-0.59532-1.3022-0.60771-2.0464-1.6495-0.74414-1.0542-0.74414-2.2696h3.3982q0.04961 0.95498 0.70693 1.4635 0.65732 0.50849 1.7611 0.50849 1.0294 0 1.5503-0.38447 0.5333-0.39687 0.5333-1.0294z"/>
   <path d="m84.708 126.92h-5.5314v15.044h-3.7207v-15.044h-5.457v-3.0138h14.709z"/>
   <path d="m93.749 131.91q-0.73174-0.0992-1.2898-0.0992-2.034 0-2.6665 1.3767v8.7809h-3.5843v-13.419h3.3858l0.09922 1.5999q1.079-1.8479 2.989-1.8479 0.59531 0 1.1162 0.16123z"/>
   <path d="m103.31 141.97q-0.24804-0.48369-0.35966-1.203-1.3022 1.4511-3.3858 1.4511-1.972 0-3.2742-1.141-1.2898-1.141-1.2898-2.8773 0-2.1332 1.5751-3.2742 1.5875-1.141 4.5765-1.1534h1.6495v-0.76895q0-0.93017-0.48369-1.4883-0.47129-0.5581-1.5007-0.5581-0.90537 0-1.4263 0.43408-0.5085 0.43408-0.5085 1.1906h-3.5843q0-1.1658 0.71934-2.158 0.71934-0.99219 2.034-1.5503 1.3146-0.5705 2.9518-0.5705 2.4805 0 3.9315 1.2526 1.4635 1.2402 1.4635 3.4975v5.8167q0.0124 1.91 0.5333 2.8898v0.21084zm-2.9642-2.4929q0.79375 0 1.4635-0.34727 0.66973-0.35967 0.99219-0.95498v-2.3068h-1.3394q-2.6913 0-2.8649 1.8604l-0.0124 0.21084q0 0.66972 0.47129 1.1038 0.47129 0.43408 1.2898 0.43408z"/>
   <path d="m114.4 137.59 2.4929-9.0413h3.7455l-4.5268 13.419h-3.423l-4.5269-13.419h3.7455z"/>
   <path d="m128.65 142.21q-2.9518 0-4.8121-1.8108-1.848-1.8107-1.848-4.8245v-0.34726q0-2.0216 0.78135-3.6091 0.78135-1.5999 2.2076-2.4557 1.4387-0.86816 3.2742-0.86816 2.7533 0 4.3284 1.7363 1.5875 1.7363 1.5875 4.9237v1.4635h-8.5452q0.17363 1.3146 1.0418 2.1084 0.88056 0.79375 2.22 0.79375 2.0712 0 3.237-1.5007l1.7611 1.972q-0.80615 1.141-2.1828 1.7859-1.3767 0.63252-3.051 0.63252zm-0.40928-11.013q-1.0666 0-1.7363 0.71934-0.65733 0.71934-0.84336 2.0588h4.9857v-0.28525q-0.0248-1.1906-0.64492-1.8356-0.62012-0.65733-1.7611-0.65733z"/>
   <path d="m140.39 141.97h-3.5967v-19.05h3.5967z"/>
   <path d="m149.93 142.21q-2.9518 0-4.8121-1.8108-1.848-1.8107-1.848-4.8245v-0.34726q0-2.0216 0.78135-3.6091 0.78134-1.5999 2.2076-2.4557 1.4387-0.86816 3.2742-0.86816 2.7533 0 4.3284 1.7363 1.5875 1.7363 1.5875 4.9237v1.4635h-8.5452q0.17364 1.3146 1.0418 2.1084 0.88057 0.79375 2.22 0.79375 2.0712 0 3.237-1.5007l1.7611 1.972q-0.80616 1.141-2.1828 1.7859-1.3767 0.63252-3.051 0.63252zm-0.40928-11.013q-1.0666 0-1.7363 0.71934-0.65732 0.71934-0.84336 2.0588h4.9857v-0.28525q-0.0248-1.1906-0.64492-1.8356-0.62012-0.65733-1.7611-0.65733z"/>
   <path d="m165.43 131.91q-0.73174-0.0992-1.2898-0.0992-2.034 0-2.6665 1.3767v8.7809h-3.5843v-13.419h3.3858l0.0992 1.5999q1.079-1.8479 2.989-1.8479 0.59532 0 1.1162 0.16123z"/>
  </g>
 </g>
</svg>
